<svg width="20" height="26" viewBox="0 0 20 26" fill="none" xmlns="http://www.w3.org/2000/svg">
<path d="M6.95711 14.7929C6.56658 14.4024 5.93342 14.4024 5.54289 14.7929C5.15237 15.1834 5.15237 15.8166 5.54289 16.2071L6.95711 14.7929ZM8.75 18L8.04289 18.7071C8.43342 19.0976 9.06658 19.0976 9.45711 18.7071L8.75 18ZM14.4571 13.7071C14.8476 13.3166 14.8476 12.6834 14.4571 12.2929C14.0666 11.9024 13.4334 11.9024 13.0429 12.2929L14.4571 13.7071ZM17.75 6.75V21.75H19.75V6.75H17.75ZM16.25 23.25H3.75V25.25H16.25V23.25ZM2.25 21.75V6.75H0.25V21.75H2.25ZM3.75 5.25H6.25V3.25H3.75V5.25ZM13.75 5.25H16.25V3.25H13.75V5.25ZM3.75 23.25C2.92157 23.25 2.25 22.5784 2.25 21.75H0.25C0.25 23.683 1.817 25.25 3.75 25.25V23.25ZM17.75 21.75C17.75 22.5784 17.0784 23.25 16.25 23.25V25.25C18.183 25.25 19.75 23.683 19.75 21.75H17.75ZM19.75 6.75C19.75 4.817 18.183 3.25 16.25 3.25V5.25C17.0784 5.25 17.75 5.92157 17.75 6.75H19.75ZM2.25 6.75C2.25 5.92157 2.92157 5.25 3.75 5.25V3.25C1.817 3.25 0.25 4.817 0.25 6.75H2.25ZM5.54289 16.2071L8.04289 18.7071L9.45711 17.2929L6.95711 14.7929L5.54289 16.2071ZM9.45711 18.7071L14.4571 13.7071L13.0429 12.2929L8.04289 17.2929L9.45711 18.7071ZM8.75 2.75H11.25V0.75H8.75V2.75ZM11.25 5.75H8.75V7.75H11.25V5.75ZM8.75 5.75C7.92157 5.75 7.25 5.07843 7.25 4.25H5.25C5.25 6.183 6.817 7.75 8.75 7.75V5.75ZM12.75 4.25C12.75 5.07843 12.0784 5.75 11.25 5.75V7.75C13.183 7.75 14.75 6.183 14.75 4.25H12.75ZM11.25 2.75C12.0784 2.75 12.75 3.42157 12.75 4.25H14.75C14.75 2.317 13.183 0.75 11.25 0.75V2.75ZM8.75 0.75C6.817 0.75 5.25 2.317 5.25 4.25H7.25C7.25 3.42157 7.92157 2.75 8.75 2.75V0.75Z" fill="white"/>
</svg>
