<svg width="30" height="30" viewBox="0 0 30 30" fill="none" xmlns="http://www.w3.org/2000/svg">
<path d="M13.5 3C12.6716 3 12 3.67157 12 4.5C12 5.32843 12.6716 6 13.5 6H16.5C17.3284 6 18 5.32843 18 4.5C18 3.67157 17.3284 3 16.5 3H13.5Z" fill="white"/>
<path fill-rule="evenodd" clip-rule="evenodd" d="M6 7.5C6 5.84315 7.34315 4.5 9 4.5C9 6.98528 11.0147 9 13.5 9H16.5C18.9853 9 21 6.98528 21 4.5C22.6569 4.5 24 5.84315 24 7.5V24C24 25.6569 22.6569 27 21 27H9C7.34315 27 6 25.6569 6 24V7.5ZM20.5607 16.0607C21.1464 15.4749 21.1464 14.5251 20.5607 13.9393C19.9749 13.3536 19.0251 13.3536 18.4393 13.9393L13.5 18.8787L11.5607 16.9393C10.9749 16.3536 10.0251 16.3536 9.43934 16.9393C8.85355 17.5251 8.85355 18.4749 9.43934 19.0607L12.4393 22.0607C13.0251 22.6464 13.9749 22.6464 14.5607 22.0607L20.5607 16.0607Z" fill="white"/>
</svg>
