<svg width="20" height="20" viewBox="0 0 20 20" fill="none" xmlns="http://www.w3.org/2000/svg">
<g id="Iconly/Bold/Arrow - Down 2">
<g id="Group">
<path id="Vector" d="M9.0575 13.8591C9.00917 13.8121 8.8025 13.6343 8.6325 13.4687C7.56333 12.4977 5.81333 9.96485 5.27917 8.63915C5.19333 8.43781 5.01167 7.9288 5 7.65684C5 7.39625 5.06 7.14783 5.18167 6.91078C5.35167 6.61528 5.61917 6.37823 5.935 6.24834C6.15417 6.16472 6.81 6.03483 6.82167 6.03483C7.53917 5.90494 8.705 5.8335 9.99333 5.8335C11.2208 5.8335 12.3392 5.90494 13.0675 6.01128C13.0792 6.02346 13.8942 6.15335 14.1733 6.29542C14.6833 6.55602 15 7.06503 15 7.60976V7.65684C14.9875 8.01161 14.6708 8.75767 14.6592 8.75767C14.1242 10.0119 12.46 12.4864 11.3542 13.4808C11.3542 13.4808 11.07 13.7609 10.8925 13.8827C10.6375 14.0727 10.3217 14.1668 10.0058 14.1668C9.65333 14.1668 9.325 14.0605 9.0575 13.8591Z" fill="#193664"/>
</g>
</g>
</svg>
