<svg width="14" height="20" viewBox="0 0 14 20" fill="none" xmlns="http://www.w3.org/2000/svg">
<path d="M2.3632 0.43881L3.4392 0.0948098C4.44919 -0.22719 5.5262 0.29381 5.9592 1.31181L6.8182 3.33981C7.1922 4.22281 6.9852 5.26181 6.3042 5.90781L4.4102 7.70581C4.5262 8.78181 4.8882 9.84081 5.4942 10.8828C6.06998 11.891 6.84222 12.7734 7.7652 13.4778L10.0402 12.7178C10.9032 12.4308 11.8422 12.7618 12.3702 13.5388L13.6032 15.3488C14.2182 16.2528 14.1082 17.4988 13.3452 18.2648L12.5272 19.0858C11.7132 19.9028 10.5502 20.1998 9.47519 19.8638C6.93619 19.0718 4.6022 16.7208 2.4722 12.8108C0.339196 8.89481 -0.413804 5.57081 0.214196 2.84281C0.478196 1.69481 1.2952 0.77981 2.3632 0.43881Z" fill="#193664"/>
</svg>
