<svg width="17" height="15" viewBox="0 0 17 15" fill="none" xmlns="http://www.w3.org/2000/svg">
<path d="M14.8333 2.95801H12.786L10.643 0.814967C10.5696 0.741308 10.4823 0.682893 10.3863 0.643084C10.2902 0.603275 10.1872 0.582858 10.0833 0.583009H6.91659C6.81261 0.582858 6.70962 0.603275 6.61356 0.643084C6.51751 0.682893 6.43027 0.741308 6.35688 0.814967L4.21384 2.95801H2.16659C1.29338 2.95801 0.583252 3.66813 0.583252 4.54134V13.2497C0.583252 14.1229 1.29338 14.833 2.16659 14.833H14.8333C15.7065 14.833 16.4166 14.1229 16.4166 13.2497V4.54134C16.4166 3.66813 15.7065 2.95801 14.8333 2.95801ZM8.49992 12.458C6.3545 12.458 4.54159 10.6451 4.54159 8.49968C4.54159 6.35426 6.3545 4.54134 8.49992 4.54134C10.6453 4.54134 12.4583 6.35426 12.4583 8.49968C12.4583 10.6451 10.6453 12.458 8.49992 12.458Z" fill="#193664"/>
<path d="M8.5 6.125C7.21275 6.125 6.125 7.21275 6.125 8.5C6.125 9.78725 7.21275 10.875 8.5 10.875C9.78725 10.875 10.875 9.78725 10.875 8.5C10.875 7.21275 9.78725 6.125 8.5 6.125Z" fill="#193664"/>
</svg>
