<svg width="16" height="16" viewBox="0 0 16 16" fill="none" xmlns="http://www.w3.org/2000/svg">
<path d="M4 1C4 0.447715 4.44772 0 5 0H5.01C5.56228 0 6.01 0.447715 6.01 1C6.01 1.55228 5.56228 2 5.01 2H5C4.44772 2 4 1.55228 4 1Z" fill="#193664"/>
<path d="M6 4C6 3.44772 5.55228 3 5 3C4.44772 3 4 3.44772 4 4V5C2.89543 5 2 5.89543 2 7V8C0.89543 8 0 8.89543 0 10V10.6833C0.368685 10.7866 0.724987 10.9482 1.0547 11.168C1.62713 11.5496 2.37287 11.5496 2.9453 11.168C4.18953 10.3385 5.81047 10.3385 7.0547 11.168C7.62713 11.5496 8.37287 11.5496 8.9453 11.168C10.1895 10.3385 11.8105 10.3385 13.0547 11.168C13.6271 11.5496 14.3729 11.5496 14.9453 11.168C15.275 10.9482 15.6313 10.7866 16 10.6833V10C16 8.89543 15.1046 8 14 8V7C14 5.89543 13.1046 5 12 5V4C12 3.44772 11.5523 3 11 3C10.4477 3 10 3.44772 10 4V5H9V4C9 3.44772 8.55229 3 8 3C7.44772 3 7 3.44772 7 4V5H6V4Z" fill="#193664"/>
<path d="M16 12.8679C14.7633 13.6614 13.1714 13.6495 11.9453 12.8321C11.3729 12.4505 10.6271 12.4505 10.0547 12.8321C8.81047 13.6616 7.18953 13.6616 5.9453 12.8321C5.37287 12.4505 4.62713 12.4505 4.0547 12.8321C2.82863 13.6495 1.23675 13.6614 0 12.8679V15C0 15.5523 0.447715 16 1 16H15C15.5523 16 16 15.5523 16 15V12.8679Z" fill="#193664"/>
<path d="M7 1C7 0.447715 7.44772 0 8 0H8.01C8.56229 0 9.01 0.447715 9.01 1C9.01 1.55228 8.56229 2 8.01 2H8C7.44772 2 7 1.55228 7 1Z" fill="#193664"/>
<path d="M10 1C10 0.447715 10.4477 0 11 0H11.01C11.5623 0 12.01 0.447715 12.01 1C12.01 1.55228 11.5623 2 11.01 2H11C10.4477 2 10 1.55228 10 1Z" fill="#193664"/>
</svg>
