<svg width="16" height="16" viewBox="0 0 16 16" fill="none" xmlns="http://www.w3.org/2000/svg">
<path d="M6.58985 5.67586C6.72916 5.58298 6.90126 5.49996 7.09981 5.43571L7.09981 6.9639C6.90126 6.89965 6.72916 6.81663 6.58985 6.72375C6.26215 6.50529 6.1998 6.30232 6.1998 6.1998C6.1998 6.09729 6.26215 5.89432 6.58985 5.67586Z" fill="#193664"/>
<path d="M8.89982 10.5639L8.89982 9.03572C9.09836 9.09997 9.27046 9.18298 9.40978 9.27586C9.73748 9.49433 9.79982 9.6973 9.79982 9.7998C9.79982 9.90232 9.73748 10.1053 9.40978 10.3238C9.27046 10.4166 9.09837 10.4996 8.89982 10.5639Z" fill="#193664"/>
<path fill-rule="evenodd" clip-rule="evenodd" d="M7.9998 15.1998C11.9763 15.1998 15.1998 11.9763 15.1998 7.9998C15.1998 4.02335 11.9763 0.799805 7.9998 0.799805C4.02335 0.799805 0.799805 4.02335 0.799805 7.9998C0.799805 11.9763 4.02335 15.1998 7.9998 15.1998ZM8.89981 3.4998C8.89981 3.00275 8.49686 2.5998 7.9998 2.5998C7.50275 2.5998 7.0998 3.00275 7.0998 3.4998V3.5826C6.54037 3.68766 6.02293 3.89047 5.59139 4.17817C4.94188 4.61117 4.3998 5.3082 4.3998 6.1998C4.3998 7.09141 4.94188 7.78844 5.59139 8.22144C6.02294 8.50914 6.54037 8.71195 7.09982 8.81701L7.09982 10.5641C6.74792 10.4499 6.48706 10.2785 6.34081 10.11C6.01505 9.73454 5.44662 9.69427 5.0712 10.02C4.69577 10.3458 4.6555 10.9142 4.98126 11.2896C5.4875 11.8731 6.25341 12.2576 7.09981 12.4167L7.0998 12.4998C7.09979 12.9968 7.50273 13.3998 7.99979 13.3998C8.49684 13.3998 8.89979 12.9969 8.89981 12.4998L8.89981 12.417C9.45925 12.312 9.97669 12.1091 10.4082 11.8214C11.0578 11.3884 11.5998 10.6914 11.5998 9.7998C11.5998 8.9082 11.0577 8.21117 10.4082 7.77817C9.97668 7.49047 9.45925 7.28766 8.89981 7.1826L8.89981 5.43548C9.25171 5.54974 9.51257 5.72109 9.65882 5.88964C9.98458 6.26507 10.553 6.30534 10.9284 5.97958C11.3039 5.65382 11.3441 5.08539 11.0184 4.70997C10.5121 4.12653 9.74622 3.74204 8.89981 3.58293V3.4998Z" fill="#193664"/>
</svg>
