<svg width="20" height="20" viewBox="0 0 20 20" fill="none" xmlns="http://www.w3.org/2000/svg">
<path d="M18.897 1.10333C17.9597 0.166076 16.4401 0.166076 15.5028 1.10333L6.3999 10.2063V13.6004H9.79401L18.897 4.49745C19.8342 3.56019 19.8342 2.04059 18.897 1.10333Z" fill="#193664"/>
<path fill-rule="evenodd" clip-rule="evenodd" d="M0.399902 5.20039C0.399902 3.87491 1.47442 2.80039 2.7999 2.80039H7.5999C8.26264 2.80039 8.7999 3.33765 8.7999 4.00039C8.7999 4.66313 8.26264 5.20039 7.5999 5.20039H2.7999V17.2004H14.7999V12.4004C14.7999 11.7376 15.3372 11.2004 15.9999 11.2004C16.6626 11.2004 17.1999 11.7376 17.1999 12.4004V17.2004C17.1999 18.5259 16.1254 19.6004 14.7999 19.6004H2.7999C1.47442 19.6004 0.399902 18.5259 0.399902 17.2004V5.20039Z" fill="#193664"/>
</svg>
