<svg width="29" height="28" viewBox="0 0 29 28" fill="none" xmlns="http://www.w3.org/2000/svg">
<path fill-rule="evenodd" clip-rule="evenodd" d="M20.5431 5.14516C20.5431 3.5935 21.8031 2.3335 23.3548 2.3335C24.9064 2.3335 26.1664 3.5935 26.1664 5.14516C26.1664 6.69683 24.9064 7.95683 23.3548 7.95683C21.8031 7.95683 20.5431 6.69683 20.5431 5.14516ZM16.0513 17.2193L19.423 12.8688L19.3763 12.8922C19.563 12.6355 19.598 12.3088 19.4696 12.0172C19.3425 11.7255 19.0613 11.5272 18.7591 11.5038C18.443 11.4688 18.1291 11.6088 17.9413 11.8655L15.1191 15.5172L11.8863 12.9738C11.688 12.8222 11.4546 12.7627 11.2213 12.7872C10.9891 12.8222 10.7791 12.9493 10.638 13.136L7.18581 17.6288L7.11464 17.7338C6.91631 18.106 7.00964 18.5843 7.35964 18.8422C7.52298 18.9472 7.69798 19.0172 7.89631 19.0172C8.16581 19.0288 8.42131 18.8877 8.58464 18.6672L11.513 14.8977L14.838 17.3955L14.943 17.4643C15.3163 17.6627 15.783 17.5705 16.0513 17.2193ZM18.5246 4.41051C18.478 4.70218 18.4546 4.99385 18.4546 5.28551C18.4546 7.91051 20.578 10.0327 23.1913 10.0327C23.483 10.0327 23.763 9.99885 24.0546 9.95218V19.366C24.0546 23.3222 21.7213 25.6672 17.7546 25.6672H9.13414C5.16631 25.6672 2.83298 23.3222 2.83298 19.366V10.7338C2.83298 6.76718 5.16631 4.41051 9.13414 4.41051H18.5246Z" fill="#193664"/>
</svg>
