<svg width="16" height="30" viewBox="0 0 16 30" fill="none" xmlns="http://www.w3.org/2000/svg">
<path d="M8.33146 18.3398C8.30367 19.445 8.85311 19.3557 8.85311 19.3557C8.88711 19.2644 8.9656 19.1386 9.06011 18.9926C9.34765 18.552 9.788 17.9344 9.62275 17.5685C9.54776 17.4026 9.40748 17.1709 9.25536 16.9378C8.96083 16.4883 8.62258 16.0338 8.62258 16.0338L10.0895 15.7918C10.0895 15.7918 11.1342 16.222 11.9586 16.2718C11.9802 16.2731 12.0017 16.2738 12.0225 16.2738C12.7755 16.2883 12.6539 15.7005 12.6539 15.511C12.6539 15.43 12.4504 15.282 12.2122 15.1362C11.8726 14.9287 11.4607 14.7247 11.4607 14.7247L11.6836 14.2647C11.8385 14.2924 11.967 14.2979 12.0733 14.2855C12.6442 14.2232 12.5657 13.6637 12.4733 13.4196C12.4469 13.3497 12.3156 13.2439 12.1302 13.1221C11.5433 12.7369 10.4194 12.2002 10.4194 12.2002H8.77121L7.14941 16.6086C7.14924 16.6087 8.35856 17.2346 8.33146 18.3398Z" fill="#E8E8E8"/>
<path opacity="0.4" d="M8.33146 18.3398C8.30367 19.445 8.85311 19.3557 8.85311 19.3557C8.88711 19.2644 8.9656 19.1386 9.06011 18.9926C9.34765 18.552 9.788 17.9344 9.62275 17.5685C9.54776 17.4026 9.40748 17.1709 9.25536 16.9378C8.96083 16.4883 8.62258 16.0338 8.62258 16.0338L10.0895 15.7918C10.0895 15.7918 11.1342 16.222 11.9586 16.2718C11.9802 16.2731 12.0017 16.2738 12.0225 16.2738C12.7755 16.2883 12.6539 15.7005 12.6539 15.511C12.6539 15.43 12.4504 15.282 12.2122 15.1362C11.8726 14.9287 11.4607 14.7247 11.4607 14.7247L11.6836 14.2647C11.8385 14.2924 11.967 14.2979 12.0733 14.2855C12.6442 14.2232 12.5657 13.6637 12.4733 13.4196C12.4469 13.3497 12.3156 13.2439 12.1302 13.1221C11.5433 12.7369 10.4194 12.2002 10.4194 12.2002H8.77121L7.14941 16.6086C7.14924 16.6087 8.35856 17.2346 8.33146 18.3398Z" fill="#B8C1CF"/>
<path opacity="0.4" d="M8.33146 18.3398C8.30367 19.445 8.85311 19.3557 8.85311 19.3557C8.88711 19.2644 8.9656 19.1386 9.06011 18.9926C9.04068 18.8903 9.02815 18.7796 9.03028 18.671C9.03727 18.2927 9.3491 17.5685 9.3491 17.5685L9.03028 17.0664C9.07682 17.0187 9.15667 16.9758 9.25536 16.9378C8.96083 16.4883 8.62258 16.0338 8.62258 16.0338L10.0895 15.7918C10.0895 15.7918 11.1342 16.222 11.9586 16.2718C11.9802 16.2731 12.0017 16.2738 12.0225 16.2738C11.9747 15.8623 12.1379 15.3436 12.2122 15.1361C11.8726 14.9286 11.4607 14.7246 11.4607 14.7246L11.6836 14.2646C11.8385 14.2923 11.967 14.2978 12.0733 14.2854C11.9983 13.9265 12.0698 13.4285 12.1302 13.1221C11.5433 12.7369 10.4194 12.2002 10.4194 12.2002H8.77121L7.14941 16.6086C7.14924 16.6087 8.35856 17.2346 8.33146 18.3398Z" fill="#B8C1CF"/>
<path d="M8.77053 12.2002H10.4192C10.4192 12.2002 12.363 13.1289 12.4729 13.4193C12.5828 13.7097 12.6723 14.4419 11.6831 14.265L11.4602 14.7246C11.4602 14.7246 12.6535 15.3153 12.6535 15.5108C12.6535 15.7064 12.7822 16.321 11.9579 16.2716C11.1336 16.2222 10.0895 15.7916 10.0895 15.7916L8.62249 16.0336C8.62249 16.0336 9.40262 17.0816 9.62241 17.5685C9.8422 18.0555 8.9904 18.9879 8.85302 19.3562C8.85302 19.3562 8.3035 19.4449 8.33095 18.3398C8.35839 17.2346 7.14941 16.6086 7.14941 16.6086" stroke="#193664" stroke-miterlimit="10" stroke-linecap="round" stroke-linejoin="round"/>
<path d="M9.16061 17.3716C9.16061 17.3716 8.74745 17.1412 8.52246 17.5687" stroke="#193664" stroke-miterlimit="10" stroke-linecap="round" stroke-linejoin="round"/>
<path d="M14.2104 17.8207H6.04226C5.60635 17.8207 5.25293 17.4688 5.25293 17.0347V1.78599C5.25293 1.35192 5.60635 1 6.04226 1H14.2104C14.6463 1 14.9997 1.35192 14.9997 1.78599V17.0347C14.9997 17.4688 14.6464 17.8207 14.2104 17.8207Z" fill="#B8C1CF" stroke="#193664" stroke-miterlimit="10" stroke-linecap="round" stroke-linejoin="round"/>
<path d="M14.6982 1.68268V17.182C14.6982 17.3756 14.5405 17.5326 14.3461 17.5326H5.90781C5.71333 17.5326 5.55566 17.3756 5.55566 17.182V1.68268C5.55566 1.48903 5.71333 1.33203 5.90781 1.33203H7.7828C7.9062 1.33203 8.01665 1.40841 8.05968 1.52356L8.13937 1.73665C8.18241 1.85181 8.29285 1.92818 8.41626 1.92818H11.8376C11.961 1.92818 12.0715 1.85181 12.1145 1.73665L12.1942 1.52356C12.2372 1.40841 12.3477 1.33203 12.4711 1.33203H14.3461C14.5405 1.33203 14.6982 1.48903 14.6982 1.68268Z" fill="#193664"/>
<path d="M11.3617 13.7042H8.88984C8.42699 13.7042 8.05176 13.3306 8.05176 12.8697C8.05176 12.4088 8.42699 12.0352 8.88984 12.0352H11.3617C11.8246 12.0352 12.1998 12.4088 12.1998 12.8697C12.1998 13.3306 11.8246 13.7042 11.3617 13.7042Z" fill="#B8C1CF" stroke="#193664" stroke-miterlimit="10" stroke-linecap="round" stroke-linejoin="round"/>
<path d="M9.31864 1.50733C9.31864 1.58744 9.25344 1.65236 9.17299 1.65236C9.09254 1.65236 9.02734 1.58744 9.02734 1.50733C9.02734 1.42722 9.09254 1.3623 9.17299 1.3623C9.25335 1.3623 9.31864 1.42722 9.31864 1.50733Z" fill="#E8E8E8" stroke="#193664" stroke-miterlimit="10" stroke-linecap="round" stroke-linejoin="round"/>
<path d="M11.2237 1.50699C11.2237 1.55723 11.1828 1.59787 11.1324 1.59787C11.0819 1.59787 11.041 1.55714 11.041 1.50699C11.041 1.45675 11.0819 1.41602 11.1324 1.41602C11.1828 1.41602 11.2237 1.45675 11.2237 1.50699Z" fill="#E8E8E8" stroke="#193664" stroke-miterlimit="10" stroke-linecap="round" stroke-linejoin="round"/>
<path d="M10.7063 1.55865H9.61406C9.5856 1.55865 9.5625 1.53566 9.5625 1.5074C9.5625 1.47905 9.5856 1.45605 9.61406 1.45605H10.7063C10.7347 1.45605 10.7578 1.47905 10.7578 1.5074C10.7578 1.53574 10.7347 1.55865 10.7063 1.55865Z" fill="#E8E8E8" stroke="#193664" stroke-miterlimit="10" stroke-linecap="round" stroke-linejoin="round"/>
<path d="M13.1817 11.1834H7.07004C6.48234 11.1834 6.00586 10.709 6.00586 10.1237V3.86826C6.00586 3.28305 6.48234 2.80859 7.07004 2.80859H13.1817C13.7694 2.80859 14.2459 3.28305 14.2459 3.86826V10.1237C14.2459 10.709 13.7695 11.1834 13.1817 11.1834Z" fill="#E8E8E8" stroke="#193664" stroke-miterlimit="10" stroke-linecap="round" stroke-linejoin="round"/>
<path d="M9.2959 6.3525V5.09375" stroke="#193664" stroke-miterlimit="10" stroke-linecap="round" stroke-linejoin="round"/>
<path d="M9.2959 7.10806V6.60449" stroke="#193664" stroke-miterlimit="10" stroke-linecap="round" stroke-linejoin="round"/>
<path d="M9.2959 7.57794V7.30859" stroke="#193664" stroke-miterlimit="10" stroke-linecap="round" stroke-linejoin="round"/>
<path d="M9.53512 5.2405L9.29633 4.94629L9.05762 5.2405" stroke="#193664" stroke-miterlimit="10" stroke-linecap="round" stroke-linejoin="round"/>
<path d="M10.959 5.8857V4.62695" stroke="#193664" stroke-miterlimit="10" stroke-linecap="round" stroke-linejoin="round"/>
<path d="M10.959 6.64118V6.1377" stroke="#193664" stroke-miterlimit="10" stroke-linecap="round" stroke-linejoin="round"/>
<path d="M10.959 7.11106V6.8418" stroke="#193664" stroke-miterlimit="10" stroke-linecap="round" stroke-linejoin="round"/>
<path d="M11.1981 4.77371L10.9594 4.47949L10.7207 4.77371" stroke="#193664" stroke-miterlimit="10" stroke-linecap="round" stroke-linejoin="round"/>
<path d="M10.0879 5.04V3.78125" stroke="#193664" stroke-miterlimit="10" stroke-linecap="round" stroke-linejoin="round"/>
<path d="M10.0879 5.79548V5.29199" stroke="#193664" stroke-miterlimit="10" stroke-linecap="round" stroke-linejoin="round"/>
<path d="M10.0879 6.26634V5.99707" stroke="#193664" stroke-miterlimit="10" stroke-linecap="round" stroke-linejoin="round"/>
<path d="M10.327 3.92809L10.0883 3.63379L9.84961 3.92809" stroke="#193664" stroke-miterlimit="10" stroke-linecap="round" stroke-linejoin="round"/>
<path d="M11.4133 7.10717C11.5799 6.39926 11.1387 5.69087 10.4278 5.52495C9.71686 5.35902 9.00546 5.79839 8.83882 6.5063C8.67219 7.21421 9.11343 7.9226 9.82435 8.08852C10.5353 8.25445 11.2467 7.81508 11.4133 7.10717Z" fill="#B8C1CF" stroke="#193664" stroke-miterlimit="10" stroke-linecap="round" stroke-linejoin="round"/>
<path d="M10.0344 6.10786V6.00195H10.2185V6.10786C10.378 6.14045 10.4598 6.26265 10.4598 6.45613V6.50094H10.2471V6.44187C10.2471 6.34004 10.2062 6.30134 10.1346 6.30134C10.063 6.30134 10.0221 6.34004 10.0221 6.44187C10.0221 6.54371 10.063 6.61499 10.2144 6.73516C10.3985 6.8818 10.4619 6.99382 10.4619 7.15675C10.4619 7.35023 10.378 7.47456 10.2185 7.50706V7.61093H10.0344V7.50706C9.87283 7.47447 9.79102 7.35023 9.79102 7.15675V7.05899H10.0038V7.17101C10.0038 7.27284 10.0488 7.3095 10.1204 7.3095C10.192 7.3095 10.237 7.27284 10.237 7.17101C10.237 7.06917 10.1961 6.99585 10.0447 6.87772C9.86064 6.73312 9.79724 6.61907 9.79724 6.45605C9.79715 6.26468 9.87692 6.1424 10.0344 6.10786Z" fill="#193664"/>
<path d="M9.09629 8.9328V8.89258H9.16617V8.9328C9.22676 8.94519 9.25779 8.99153 9.25779 9.06502V9.08207H9.17708V9.05967C9.17708 9.02097 9.16157 9.00638 9.13438 9.00638C9.1072 9.00638 9.0916 9.02106 9.0916 9.05967C9.0916 9.09837 9.1072 9.12535 9.16464 9.17101C9.23452 9.22668 9.25855 9.26919 9.25855 9.33106C9.25855 9.40455 9.22676 9.45165 9.16617 9.46404V9.5035H9.09629V9.46404C9.03501 9.45173 9.00391 9.40455 9.00391 9.33106V9.29397H9.0847V9.33649C9.0847 9.37519 9.10174 9.38902 9.12893 9.38902C9.15612 9.38902 9.17316 9.3751 9.17316 9.33649C9.17316 9.29788 9.15765 9.26996 9.10021 9.22515C9.03033 9.17033 9.00629 9.12696 9.00629 9.0651C9.00621 8.99229 9.03655 8.94587 9.09629 8.9328Z" fill="#193664"/>
<path d="M9.36914 8.99571C9.43529 8.99571 9.45008 8.96397 9.46332 8.92773H9.52093V9.46881H9.43529V9.05604H9.36914V8.99571Z" fill="#193664"/>
<path d="M9.61816 9.05799C9.61816 8.97143 9.66401 8.92188 9.74779 8.92188C9.83156 8.92188 9.87741 8.97135 9.87741 9.05799V9.33939C9.87741 9.42595 9.83156 9.47543 9.74779 9.47543C9.66401 9.47543 9.61816 9.42595 9.61816 9.33939V9.05799ZM9.70356 9.34482C9.70356 9.38344 9.7206 9.3982 9.74779 9.3982C9.77497 9.3982 9.79202 9.38352 9.79202 9.34482V9.05265C9.79202 9.01395 9.77497 8.99935 9.74779 8.99935C9.7206 8.99935 9.70356 9.01403 9.70356 9.05265V9.34482Z" fill="#193664"/>
<path d="M9.9248 9.05799C9.9248 8.97143 9.97065 8.92188 10.0544 8.92188C10.1383 8.92188 10.1841 8.97135 10.1841 9.05799V9.33939C10.1841 9.42595 10.1382 9.47543 10.0544 9.47543C9.97057 9.47543 9.9248 9.42595 9.9248 9.33939V9.05799ZM10.0102 9.34482C10.0102 9.38344 10.0272 9.3982 10.0544 9.3982C10.0816 9.3982 10.0987 9.38352 10.0987 9.34482V9.05265C10.0987 9.01395 10.0816 8.99935 10.0544 8.99935C10.0272 8.99935 10.0102 9.01403 10.0102 9.05265V9.34482Z" fill="#193664"/>
<path d="M10.2324 9.05799C10.2324 8.97143 10.2783 8.92188 10.362 8.92188C10.4458 8.92188 10.4917 8.97135 10.4917 9.05799V9.33939C10.4917 9.42595 10.4458 9.47543 10.362 9.47543C10.2783 9.47543 10.2324 9.42595 10.2324 9.33939V9.05799ZM10.3179 9.34482C10.3179 9.38344 10.3349 9.3982 10.3621 9.3982C10.3893 9.3982 10.4064 9.38352 10.4064 9.34482V9.05265C10.4064 9.01395 10.3893 8.99935 10.3621 8.99935C10.3349 8.99935 10.3179 9.01403 10.3179 9.05265V9.34482Z" fill="#193664"/>
<path d="M10.6294 9.38672V9.4687H10.5469V9.38672H10.6294Z" fill="#193664"/>
<path d="M10.6836 9.05799C10.6836 8.97143 10.7294 8.92188 10.8132 8.92188C10.897 8.92188 10.9428 8.97135 10.9428 9.05799V9.33939C10.9428 9.42595 10.897 9.47543 10.8132 9.47543C10.7294 9.47543 10.6836 9.42595 10.6836 9.33939V9.05799ZM10.7691 9.34482C10.7691 9.38344 10.7861 9.3982 10.8133 9.3982C10.8405 9.3982 10.8575 9.38352 10.8575 9.34482V9.05265C10.8575 9.01395 10.8405 8.99935 10.8133 8.99935C10.7861 8.99935 10.7691 9.01403 10.7691 9.05265V9.34482Z" fill="#193664"/>
<path d="M10.9932 9.05799C10.9932 8.97143 11.039 8.92188 11.1228 8.92188C11.2066 8.92188 11.2524 8.97135 11.2524 9.05799V9.33939C11.2524 9.42595 11.2066 9.47543 11.1228 9.47543C11.0389 9.47543 10.9932 9.42595 10.9932 9.33939V9.05799ZM11.0786 9.34482C11.0786 9.38344 11.0956 9.3982 11.1228 9.3982C11.15 9.3982 11.167 9.38352 11.167 9.34482V9.05265C11.167 9.01395 11.15 8.99935 11.1228 8.99935C11.0956 8.99935 11.0786 9.01403 11.0786 9.05265V9.34482Z" fill="#193664"/>
<path d="M8.62598 9.96973H8.71161V10.5108H8.62598V9.96973Z" fill="#193664"/>
<path d="M8.77344 9.96973H8.90852C8.99391 9.96973 9.03584 10.0169 9.03584 10.1035V10.3771C9.03584 10.4638 8.99391 10.5109 8.90852 10.5109H8.77344V9.96973ZM8.85883 10.047V10.4335H8.90698C8.93417 10.4335 8.95045 10.4196 8.95045 10.381V10.0996C8.95045 10.0609 8.93417 10.047 8.90698 10.047H8.85883Z" fill="#193664"/>
<path d="M9.16557 10.4277V10.5097H9.08301V10.4277H9.16557Z" fill="#193664"/>
<path d="M9.35158 10.0403C9.3244 10.0403 9.30735 10.055 9.30735 10.0936V10.1515H9.22656V10.099C9.22656 10.0125 9.27003 9.96289 9.35389 9.96289C9.43775 9.96289 9.48121 10.0124 9.48121 10.099C9.48121 10.1709 9.45479 10.2288 9.37562 10.3131C9.32516 10.3673 9.31119 10.3927 9.31119 10.4213C9.31119 10.4251 9.31119 10.429 9.31196 10.4329H9.47345V10.5102H9.22656V10.4437C9.22656 10.3834 9.24829 10.3378 9.31196 10.2713C9.37724 10.2025 9.39581 10.1599 9.39581 10.102C9.39581 10.0534 9.37877 10.0403 9.35158 10.0403Z" fill="#193664"/>
<path d="M9.58789 10.0377C9.65404 10.0377 9.66883 10.006 9.68207 9.96973H9.73968V10.5108H9.65404V10.098H9.58789V10.0377Z" fill="#193664"/>
<path d="M9.96558 10.5164C9.87942 10.5164 9.83203 10.467 9.83203 10.3804V10.3379C9.83203 10.2861 9.84754 10.2467 9.88487 10.2258V10.2242C9.84916 10.2049 9.83203 10.1694 9.83203 10.116V10.099C9.83203 10.0125 9.87942 9.96289 9.96558 9.96289C10.0517 9.96289 10.0991 10.0124 10.0991 10.099V10.116C10.0991 10.1694 10.0812 10.2049 10.0463 10.2242V10.2258C10.0836 10.2467 10.0991 10.286 10.0991 10.3379V10.3804C10.0991 10.467 10.0517 10.5164 9.96558 10.5164ZM9.91742 10.1322C9.91742 10.1755 9.93762 10.1894 9.96558 10.1894C9.99276 10.1894 10.0137 10.1755 10.0137 10.1322V10.1021C10.0137 10.0534 9.99276 10.0402 9.96558 10.0402C9.93839 10.0402 9.91742 10.0534 9.91742 10.1021V10.1322ZM9.96558 10.4391C9.99276 10.4391 10.013 10.426 10.0137 10.378V10.3278C10.0137 10.2853 9.99592 10.2667 9.96558 10.2667C9.93532 10.2667 9.91742 10.2853 9.91742 10.3278V10.378C9.91742 10.426 9.93839 10.4391 9.96558 10.4391Z" fill="#193664"/>
<path d="M10.2031 10.0377C10.2693 10.0377 10.2841 10.006 10.2973 9.96973H10.3549V10.5108H10.2693V10.098H10.2031V10.0377Z" fill="#193664"/>
<path d="M10.7084 10.3757C10.7084 10.467 10.6665 10.5164 10.578 10.5164C10.4941 10.5164 10.4507 10.467 10.4507 10.3804V10.3665H10.5315V10.3858C10.5315 10.4245 10.5485 10.4392 10.5757 10.4392C10.6059 10.4392 10.6231 10.4245 10.6231 10.3727V10.2745H10.6215C10.6068 10.3054 10.5819 10.3217 10.5439 10.3217C10.481 10.3217 10.4492 10.2776 10.4492 10.198V10.099C10.4492 10.0125 10.4951 9.96289 10.5788 9.96289C10.6626 9.96289 10.7085 10.0124 10.7085 10.099V10.3757H10.7084ZM10.623 10.191V10.0936C10.623 10.0549 10.6059 10.041 10.5788 10.041C10.5516 10.041 10.5344 10.055 10.5344 10.0936V10.191C10.5344 10.2297 10.5516 10.2443 10.5788 10.2443C10.6059 10.2443 10.623 10.2296 10.623 10.191Z" fill="#193664"/>
<path d="M10.8424 10.3362V10.3864C10.8424 10.4251 10.8596 10.439 10.8867 10.439C10.9139 10.439 10.931 10.4251 10.931 10.3864V10.2673C10.931 10.2286 10.9139 10.214 10.8867 10.214C10.8596 10.214 10.8424 10.2287 10.8424 10.2673V10.2835H10.7617L10.7772 9.96973H11.0024V10.047H10.8533L10.8463 10.1761H10.848C10.8635 10.1506 10.8875 10.1366 10.9217 10.1366C10.9846 10.1366 11.0164 10.1808 11.0164 10.2603V10.3809C11.0164 10.4674 10.9729 10.5169 10.889 10.5169C10.8052 10.5169 10.7617 10.4674 10.7617 10.3809V10.3361L10.8424 10.3362Z" fill="#193664"/>
<path d="M11.0684 10.1036C11.0684 10.0124 11.1104 9.96289 11.1988 9.96289C11.2827 9.96289 11.3262 10.0124 11.3262 10.099V10.1129H11.2454V10.0936C11.2454 10.0549 11.2283 10.0403 11.2011 10.0403C11.1709 10.0403 11.1538 10.055 11.1538 10.1067V10.2049H11.1553C11.17 10.174 11.1949 10.1577 11.2329 10.1577C11.2958 10.1577 11.3276 10.2018 11.3276 10.2814V10.3803C11.3276 10.4669 11.2818 10.5164 11.198 10.5164C11.1142 10.5164 11.0684 10.4669 11.0684 10.3803L11.0684 10.1036ZM11.1538 10.2884V10.3858C11.1538 10.4245 11.1709 10.4385 11.1981 10.4385C11.2253 10.4385 11.2424 10.4245 11.2424 10.3858V10.2884C11.2424 10.2498 11.2253 10.235 11.1981 10.235C11.1709 10.235 11.1538 10.2497 11.1538 10.2884Z" fill="#193664"/>
<path d="M11.6312 9.96981V10.044L11.5055 10.5109H11.4201L11.545 10.047H11.375V9.96973L11.6312 9.96981Z" fill="#193664"/>
<path d="M10.0166 9.60352H10.1169V9.63279H10.083V9.80837H10.0505V9.63279H10.0167V9.60352H10.0166Z" fill="#193664"/>
<path d="M10.1289 9.65307C10.1289 9.62032 10.1463 9.60156 10.1781 9.60156C10.2099 9.60156 10.2274 9.62032 10.2274 9.65307V9.75957C10.2274 9.79233 10.2099 9.81109 10.1781 9.81109C10.1463 9.81109 10.1289 9.79233 10.1289 9.75957V9.65307ZM10.1614 9.76161C10.1614 9.77621 10.1678 9.78181 10.1781 9.78181C10.1885 9.78181 10.1949 9.77629 10.1949 9.76161V9.65095C10.1949 9.63636 10.1885 9.63076 10.1781 9.63076C10.1678 9.63076 10.1614 9.63627 10.1614 9.65095V9.76161Z" fill="#193664"/>
<path d="M9.4411 12.4229C9.56314 12.4229 9.62587 12.4955 9.62587 12.6227V12.6477H9.50723V12.6147C9.50723 12.558 9.4844 12.5364 9.44451 12.5364C9.40454 12.5364 9.38179 12.558 9.38179 12.6147C9.38179 12.6727 9.40684 12.7158 9.489 12.7873C9.59391 12.8793 9.62706 12.9452 9.62706 13.0361C9.62706 13.1633 9.56323 13.2359 9.43999 13.2359C9.31685 13.2359 9.25293 13.1633 9.25293 13.0361V12.9873H9.37156V13.044C9.37156 13.1008 9.3967 13.1213 9.43659 13.1213C9.47647 13.1213 9.50161 13.1008 9.50161 13.044C9.50161 12.9861 9.47656 12.943 9.3944 12.8714C9.28949 12.7794 9.25642 12.7136 9.25642 12.6227C9.25634 12.4956 9.31906 12.4229 9.4411 12.4229Z" fill="#193664"/>
<path d="M9.82377 12.7666H9.99593V12.8802H9.82377V13.113H10.0404V13.2265H9.69824V12.4316H10.0404V12.5452H9.82377V12.7666Z" fill="#193664"/>
<path d="M10.2324 12.6508H10.2301V13.2265H10.1172V12.4316H10.2746L10.4012 12.9075H10.4035V12.4316H10.5152V13.2265H10.3863L10.2324 12.6508Z" fill="#193664"/>
<path d="M10.6045 12.4316H10.803C10.9284 12.4316 10.99 12.5009 10.99 12.628V13.03C10.99 13.1572 10.9284 13.2265 10.803 13.2265H10.6045V12.4316ZM10.7299 12.5451V13.1129H10.8007C10.8406 13.1129 10.8646 13.0925 10.8646 13.0357V12.6223C10.8646 12.5656 10.8406 12.5451 10.8007 12.5451H10.7299Z" fill="#193664"/>
<path d="M4.51074 10.834C4.51074 10.834 5.06026 11.0031 5.25261 11.4787" stroke="#193664" stroke-miterlimit="10" stroke-linecap="round" stroke-linejoin="round"/>
<path d="M2.02148 25.9079C2.08284 24.8506 2.12316 23.7706 2.17616 22.901C2.2861 21.098 2.36851 19.8885 2.53333 18.6573C2.69824 17.426 2.67071 15.5663 2.75312 14.9166C2.83553 14.2669 3.08123 14.1295 3.2752 13.3579C3.46917 12.5863 3.64353 11.0497 3.9621 10.8336C4.28066 10.6176 5.25356 10.2119 5.25356 10.2119V14.5645C5.83061 15.4479 6.51751 15.6665 6.51751 15.6665C6.95717 14.3994 6.9022 13.8965 7.34187 13.4313C7.78153 12.9662 8.09822 12.3581 8.78853 12.6122C9.11723 12.7332 9.29279 12.8568 9.12789 13.9664C8.96298 15.0759 8.63334 15.4246 8.63334 15.4246C8.57837 15.8036 8.66078 16.9061 8.79816 17.4701C8.93554 18.0341 8.41346 19.5328 8.16614 20.4904C7.91883 21.448 6.59992 23.3885 6.59992 23.3885C6.59992 23.3885 6.54495 24.4576 6.65489 25.5794C6.66494 25.6824 6.67764 25.7927 6.6923 25.9077L6.77948 28.8877L2.02148 28.7983V25.9079Z" fill="#E8E8E8"/>
<path opacity="0.4" d="M9.03042 12.9392C9.004 12.8444 9.00817 12.7822 9.03042 12.7421C8.96582 12.6826 8.88383 12.6473 8.78873 12.6127C8.09833 12.3582 7.78165 12.9669 7.34189 13.4317C7.3009 13.4752 7.26409 13.5188 7.23145 13.5638C7.62944 13.4144 8.15109 13.4172 8.36082 13.707C8.62476 14.07 9.16234 13.4137 9.03042 12.9392Z" fill="#B8C1CF"/>
<path opacity="0.4" d="M6.04944 24.8408L5.83203 25.6521C5.83203 25.6521 6.13832 25.3533 6.59605 24.6285C6.57381 23.921 6.60091 23.3891 6.60091 23.3891C6.60091 23.3891 7.91991 21.4484 8.16714 20.4911C8.41437 19.5332 8.9367 18.0345 8.79924 17.4708C8.66169 16.9064 8.57979 15.804 8.63459 15.425C8.63459 15.425 8.70336 15.3517 8.7943 15.1656C8.73455 15.1082 8.6651 15.0612 8.58729 15.0439C8.58729 15.0439 8.23447 15.8759 8.31986 16.9708C8.40525 18.0649 8.21708 18.1562 7.85309 19.5789C7.48911 21.0017 6.88488 22.6124 6.60074 22.9015C6.31678 23.1906 6.19389 24.4923 6.04944 24.8408Z" fill="#B8C1CF"/>
<path opacity="0.4" d="M5.5283 15.2551C5.5283 15.2551 5.09486 15.3222 4.92058 15.4245C4.92058 15.4245 5.76659 15.6445 5.82147 15.879C5.87635 16.1128 6.05762 16.3569 6.37917 16.0706C6.37917 16.0706 6.39587 15.8914 6.42919 15.6314C6.225 15.5408 5.70616 15.2566 5.25397 14.565V10.2119C5.25397 10.2119 4.77331 10.4124 4.37677 10.6061C4.67053 10.6448 4.97129 10.7347 5.08872 10.9326C5.08872 10.9326 4.99984 11.297 4.59417 11.4782C4.28166 11.6179 4.59417 13.9667 4.59417 13.9667C4.59417 13.9667 4.08156 14.0926 3.91699 14.565C3.91699 14.565 4.75951 14.6508 5.10747 14.917C5.45544 15.1825 5.5283 15.2551 5.5283 15.2551Z" fill="#B8C1CF"/>
<path opacity="0.4" d="M2.17651 22.9007C2.13347 23.6048 2.09938 24.4471 2.05566 25.3041C2.16398 23.6753 2.49252 20.8798 2.49252 20.8798C2.49252 20.8798 2.78628 21.9138 2.80852 21.8038C2.8738 21.4801 2.67097 19.6507 2.68904 18.9993C2.69739 18.7039 2.67583 17.9466 2.64941 17.208C2.62581 17.7157 2.5918 18.2246 2.53342 18.6569C2.36894 19.8879 2.28628 21.0976 2.17651 22.9007Z" fill="#B8C1CF"/>
<path d="M2.02148 28.9999V25.9079C2.08284 24.8506 2.12316 23.7706 2.17616 22.901C2.2861 21.098 2.36851 19.8885 2.53333 18.6573C2.69824 17.426 2.67071 15.5663 2.75312 14.9166C2.83553 14.2669 3.08123 14.1296 3.2752 13.3579C3.46917 12.5863 3.64353 11.0497 3.9621 10.8336C4.28066 10.6176 5.25356 10.2119 5.25356 10.2119V14.5646C5.83061 15.4479 6.51751 15.6665 6.51751 15.6665C6.95717 14.3994 6.9022 13.8965 7.34187 13.4313C7.78153 12.9662 8.09822 12.3581 8.78853 12.6122C9.11723 12.7332 9.29279 12.8568 9.12789 13.9664C8.96298 15.0759 8.63334 15.4246 8.63334 15.4246C8.57837 15.8036 8.66078 16.9061 8.79816 17.4701C8.93554 18.0341 8.41346 19.5328 8.16614 20.4904C7.91883 21.448 6.59992 23.3885 6.59992 23.3885C6.59992 23.3885 6.54495 24.4576 6.65489 25.5794C6.66494 25.6824 6.67764 25.7927 6.6923 25.9078C6.6923 25.9078 6.73661 27.8317 6.9472 28.9997" stroke="#193664" stroke-miterlimit="10" stroke-linecap="round" stroke-linejoin="round"/>
<path d="M6.51877 15.667C6.51877 15.667 6.38139 16.2774 6.10663 16.4142C5.83187 16.551 5.43652 16.4142 5.43652 16.4142" stroke="#193664" stroke-miterlimit="10" stroke-linecap="round" stroke-linejoin="round"/>
<path d="M5.25459 14.5644C5.25459 14.5644 4.97983 13.9563 4.10059 14.4837" stroke="#193664" stroke-miterlimit="10" stroke-linecap="round" stroke-linejoin="round"/>
<path d="M5.25347 12.1068C5.25347 12.1068 5.1985 11.7842 4.74512 11.7021" stroke="#193664" stroke-miterlimit="10" stroke-linecap="round" stroke-linejoin="round"/>
<path d="M6.59987 23.3887C6.07779 24.0474 6.17708 24.6767 5.97629 25.005C5.77551 25.3334 5.80303 26.5099 5.80303 26.5099" stroke="#193664" stroke-miterlimit="10" stroke-linecap="round" stroke-linejoin="round"/>
<path d="M2.80762 17.0664C2.80762 17.0664 2.80762 18.3586 2.80762 19.3562C2.80762 20.3539 2.99997 21.3115 2.99997 21.3115" stroke="#193664" stroke-miterlimit="10" stroke-linecap="round" stroke-linejoin="round"/>
<path d="M8.63271 15.4241C8.63271 15.4241 8.63271 15.0332 8.52246 14.916" stroke="#193664" stroke-miterlimit="10" stroke-linecap="round" stroke-linejoin="round"/>
<path d="M8.33087 14.1955C8.33087 14.1955 8.08747 13.3796 7.37305 13.7353" stroke="#193664" stroke-miterlimit="10" stroke-linecap="round" stroke-linejoin="round"/>
<path d="M6.12939 15.4656C5.59888 15.4769 5.06112 15.2427 4.74512 15.5276" stroke="#193664" stroke-miterlimit="10" stroke-linecap="round" stroke-linejoin="round"/>
<path d="M1.94404 28.1047H1.80078V24.8594H1.94404C2.0371 24.8594 2.11261 24.9345 2.11261 25.0272V27.9368C2.11261 28.0295 2.03719 28.1047 1.94404 28.1047Z" fill="#193664"/>
<path d="M1.80078 25.2797C1.80078 25.2797 4.31989 24.624 6.73766 25.3714C6.81445 25.3951 6.86635 25.4669 6.86635 25.547V27.0867C6.86635 27.1442 6.81445 27.1878 6.75752 27.1777C6.2386 27.0846 3.95616 26.7255 1.92546 27.1981L1.80078 25.2797Z" fill="#193664"/>
<path d="M1.91035 25.2512V24.9042C1.91035 24.7899 1.81729 24.6973 1.70241 24.6973H1.41998C1.34873 24.6973 1.28311 24.736 1.24885 24.7983L1 25.2512V27.9033L1.24587 28.2016C1.28294 28.2466 1.33825 28.2727 1.39663 28.2727H1.70241C1.8172 28.2727 1.91035 28.18 1.91035 28.0657V25.2512Z" fill="#B8C1CF" stroke="#193664" stroke-miterlimit="10" stroke-linecap="round" stroke-linejoin="round"/>
<path d="M1.73183 25.0801L2.30692 24.9736C2.37509 24.9609 2.43807 25.013 2.43807 25.0822V25.4127L2.24769 25.5533V26.6275H2.43807V27.1879C2.43807 27.2525 2.39248 27.3083 2.3289 27.3214L1.78279 27.4341C1.70089 27.4509 1.62402 27.3887 1.62402 27.3053V25.2092C1.62394 25.146 1.66928 25.0916 1.73183 25.0801Z" fill="#B8C1CF" stroke="#193664" stroke-miterlimit="10" stroke-linecap="round" stroke-linejoin="round"/>
<path d="M1.75293 27.2873L2.2214 27.1807C2.25634 27.1727 2.28114 27.1418 2.28114 27.1061V26.7559" stroke="#193664" stroke-miterlimit="10" stroke-linecap="round" stroke-linejoin="round"/>
<path d="M2.09082 26.6104V25.4607L2.27908 25.318V25.1025" stroke="#193664" stroke-miterlimit="10" stroke-linecap="round" stroke-linejoin="round"/>
<path d="M1.3291 24.9072V27.979" stroke="#193664" stroke-miterlimit="10" stroke-linecap="round" stroke-linejoin="round"/>
<path d="M3.60479 26.1052C3.55826 26.1052 3.52051 26.0676 3.52051 26.0213V25.8378C3.52051 25.7915 3.55826 25.7539 3.60479 25.7539C3.65132 25.7539 3.68908 25.7915 3.68908 25.8378V26.0213C3.68908 26.0676 3.65132 26.1052 3.60479 26.1052Z" fill="#E8E8E8"/>
<path d="M4.90264 26.1394C4.85611 26.1394 4.81836 26.1018 4.81836 26.0555V25.872C4.81836 25.8257 4.85611 25.7881 4.90264 25.7881C4.94918 25.7881 4.98693 25.8257 4.98693 25.872V26.0555C4.98693 26.1019 4.94926 26.1394 4.90264 26.1394Z" fill="#E8E8E8"/>
<path d="M6.05792 26.2811C6.01139 26.2811 5.97363 26.2435 5.97363 26.1972V26.0136C5.97363 25.9673 6.01139 25.9297 6.05792 25.9297C6.10445 25.9297 6.1422 25.9673 6.1422 26.0136V26.1972C6.1422 26.2436 6.10445 26.2811 6.05792 26.2811Z" fill="#E8E8E8"/>
</svg>
