<svg width="24" height="24" viewBox="0 0 24 24" fill="none" xmlns="http://www.w3.org/2000/svg">
<path d="M11.5437 23.8632C9.88457 23.8632 8.21249 23.1252 6.57065 21.648C6.54561 21.6255 6.52559 21.5981 6.5119 21.5673C6.49821 21.5366 6.49116 21.5033 6.49121 21.4697V14.5738C6.49121 14.5101 6.5165 14.4491 6.56151 14.4041C6.60651 14.359 6.66756 14.3338 6.73121 14.3338H10.8911C10.9548 14.3338 11.0158 14.359 11.0608 14.4041C11.1058 14.4491 11.1311 14.5101 11.1311 14.5738C11.1311 14.6374 11.1058 14.6985 11.0608 14.7435C11.0158 14.7885 10.9548 14.8138 10.8911 14.8138H6.97121V21.3622C10.1558 24.179 13.3276 24.0653 16.3999 21.023L20.7127 16.7522C21.0016 16.4645 21.161 16.0812 21.161 15.6737C21.161 15.2662 21.0016 14.8829 20.7122 14.5946C20.1139 13.999 19.1404 13.999 18.5421 14.5946L15.2915 17.8322C15.2692 17.8545 15.2427 17.8721 15.2136 17.8841C15.1844 17.8961 15.1532 17.9022 15.1217 17.9022C15.0902 17.9021 15.059 17.8958 15.0299 17.8837C15.0008 17.8716 14.9744 17.8539 14.9522 17.8315C14.9299 17.8092 14.9123 17.7827 14.9003 17.7536C14.8883 17.7244 14.8822 17.6932 14.8822 17.6617C14.8823 17.6302 14.8886 17.599 14.9007 17.5699C14.9128 17.5408 14.9306 17.5144 14.9529 17.4922L18.2035 14.2546C18.9885 13.4729 20.266 13.4726 21.0508 14.2546C21.4314 14.6335 21.641 15.1375 21.641 15.6737C21.641 16.2098 21.4314 16.7136 21.0508 17.0928L16.7375 21.3641C15.0556 23.0297 13.3067 23.8632 11.5437 23.8632Z" fill="#234BAD"/>
<path d="M13.9475 18.3475H10.8916C10.828 18.3475 10.7669 18.3222 10.7219 18.2772C10.6769 18.2322 10.6516 18.1712 10.6516 18.1075C10.6516 18.0439 10.6769 17.9828 10.7219 17.9378C10.7669 17.8928 10.828 17.8675 10.8916 17.8675H13.9475C14.7933 17.8675 15.4816 17.1826 15.4816 16.3406C15.4816 15.4987 14.7933 14.8138 13.9475 14.8138H10.8916C10.828 14.8138 10.7669 14.7885 10.7219 14.7435C10.6769 14.6985 10.6516 14.6374 10.6516 14.5738C10.6516 14.5101 10.6769 14.4491 10.7219 14.4041C10.7669 14.359 10.828 14.3338 10.8916 14.3338H13.9475C15.058 14.3338 15.9616 15.234 15.9616 16.3406C15.9616 17.4473 15.0583 18.3475 13.9475 18.3475ZM6.06905 22.7069H3.26297C3.0238 22.7069 2.79437 22.6122 2.62498 22.4433C2.45559 22.2745 2.36007 22.0453 2.35938 21.8062V14.4113C2.36001 14.1721 2.45551 13.9429 2.62491 13.7741C2.79431 13.6052 3.02378 13.5104 3.26297 13.5106H6.06809C6.56681 13.5106 6.97241 13.9147 6.97241 14.4113V21.8062C6.97178 22.0453 6.87632 22.2744 6.70697 22.4433C6.53761 22.6122 6.3082 22.7069 6.06905 22.7069ZM3.26297 13.9906C3.02945 13.9906 2.83937 14.1794 2.83937 14.4113V21.8062C2.83982 21.9181 2.88468 22.0253 2.96411 22.1042C3.04354 22.1831 3.15103 22.2272 3.26297 22.2269H6.06905C6.30257 22.2269 6.49265 22.038 6.49265 21.8062V14.4113C6.49265 14.1792 6.30234 13.9906 6.06834 13.9906H3.26297Z" fill="#234BAD"/>
<path d="M5.40895 16.2084C5.34529 16.2084 5.28425 16.1831 5.23924 16.1381C5.19423 16.0931 5.16895 16.0321 5.16895 15.9684V15.3979C5.16895 15.3343 5.19423 15.2732 5.23924 15.2282C5.28425 15.1832 5.34529 15.1579 5.40895 15.1579C5.4726 15.1579 5.53364 15.1832 5.57865 15.2282C5.62366 15.2732 5.64895 15.3343 5.64895 15.3979V15.9684C5.64895 16.0321 5.62366 16.0931 5.57865 16.1381C5.53364 16.1831 5.4726 16.2084 5.40895 16.2084ZM14.2637 12.7992C11.7262 12.7992 9.48078 11.1077 8.80302 8.68536C8.78808 8.62482 8.79729 8.56083 8.82871 8.50696C8.86012 8.45309 8.91127 8.41356 8.97132 8.39674C9.03137 8.37993 9.09561 8.38715 9.15044 8.41688C9.20526 8.4466 9.24635 8.4965 9.26503 8.556C9.88495 10.7717 11.9405 12.3192 14.2635 12.3192C15.65 12.3192 16.9529 11.784 17.9319 10.812C18.356 10.3916 18.7036 9.90047 18.9591 9.36072C19.192 8.87316 19.3438 8.35086 19.4084 7.8144C19.436 7.60488 19.4499 7.39104 19.4499 7.176V6.7632C19.4499 6.69955 19.4752 6.6385 19.5202 6.5935C19.5652 6.54849 19.6263 6.5232 19.6899 6.5232C19.7536 6.5232 19.8146 6.54849 19.8596 6.5935C19.9046 6.6385 19.9299 6.69955 19.9299 6.7632V7.176C19.9299 7.41168 19.9148 7.64688 19.8845 7.87464C19.8138 8.46173 19.6477 9.03333 19.3928 9.56688C19.1136 10.1566 18.7337 10.6932 18.2703 11.1526C17.2009 12.2146 15.7779 12.7992 14.2637 12.7992ZM19.6901 5.3832C19.6265 5.3832 19.5654 5.35792 19.5204 5.31291C19.4754 5.2679 19.4501 5.20685 19.4501 5.1432V3.0912C19.4501 2.9172 19.3472 2.76096 19.1878 2.69256L14.4397 0.637923C14.3844 0.613028 14.3245 0.600075 14.2638 0.599909C14.2032 0.599744 14.1432 0.61237 14.0878 0.636963L9.33823 2.69232C9.26007 2.72568 9.19345 2.78128 9.14664 2.8522C9.09983 2.92311 9.0749 3.00623 9.07495 3.0912V4.2984C9.07495 4.36205 9.04966 4.4231 9.00465 4.46811C8.95964 4.51312 8.8986 4.5384 8.83495 4.5384C8.77129 4.5384 8.71025 4.51312 8.66524 4.46811C8.62023 4.4231 8.59495 4.36205 8.59495 4.2984V3.0912C8.59468 2.91232 8.64703 2.73731 8.74548 2.58795C8.84393 2.43859 8.98413 2.32148 9.14863 2.2512L13.8949 0.197283C14.0111 0.145937 14.1367 0.119495 14.2637 0.11966C14.3908 0.119826 14.5163 0.146594 14.6324 0.198243L19.3774 2.25144C19.5417 2.32184 19.6816 2.43893 19.7799 2.58819C19.8781 2.73744 19.9304 2.91227 19.9301 3.09096V5.14296C19.9302 5.1745 19.924 5.20573 19.9119 5.23488C19.8999 5.26403 19.8822 5.29051 19.8599 5.31282C19.8376 5.33513 19.8112 5.35283 19.782 5.36491C19.7529 5.37699 19.7217 5.3832 19.6901 5.3832ZM8.83495 7.2384C8.77129 7.2384 8.71025 7.21312 8.66524 7.16811C8.62023 7.1231 8.59495 7.06205 8.59495 6.9984V5.9208C8.59495 5.85715 8.62023 5.7961 8.66524 5.7511C8.71025 5.70609 8.77129 5.6808 8.83495 5.6808C8.8986 5.6808 8.95964 5.70609 9.00465 5.7511C9.04966 5.7961 9.07495 5.85715 9.07495 5.9208V6.9984C9.07495 7.06205 9.04966 7.1231 9.00465 7.16811C8.95964 7.21312 8.8986 7.2384 8.83495 7.2384Z" fill="#234BAD"/>
<path d="M10.5642 6.15072C10.5006 6.15072 10.4395 6.12544 10.3945 6.08043C10.3495 6.03542 10.3242 5.97437 10.3242 5.91072V3.77136C10.3242 3.6756 10.3811 3.5892 10.4689 3.55128L12.9743 2.46672C13.0327 2.44142 13.0988 2.44036 13.1579 2.46376C13.2171 2.48716 13.2646 2.53312 13.2899 2.59152C13.3152 2.64992 13.3163 2.71598 13.2929 2.77517C13.2695 2.83436 13.2235 2.88182 13.1651 2.90712L10.8042 3.92904V5.91072C10.8042 5.97437 10.7789 6.03542 10.7339 6.08043C10.6889 6.12544 10.6279 6.15072 10.5642 6.15072ZM13.5681 7.8936C13.5047 7.89367 13.444 7.86864 13.3991 7.824L12.3822 6.81504C12.3592 6.793 12.3408 6.76659 12.3282 6.73737C12.3155 6.70815 12.3087 6.67669 12.3083 6.64484C12.3079 6.61298 12.3139 6.58136 12.3258 6.55183C12.3377 6.52229 12.3555 6.49543 12.3779 6.47281C12.4003 6.45019 12.427 6.43226 12.4565 6.42007C12.4859 6.40787 12.5175 6.40166 12.5493 6.4018C12.5812 6.40193 12.6127 6.4084 12.642 6.42084C12.6713 6.43328 12.6979 6.45143 12.7201 6.47424L13.5681 7.31544L15.8046 5.09616C15.8501 5.0526 15.9108 5.02863 15.9737 5.02943C16.0367 5.03023 16.0968 5.05572 16.1411 5.10043C16.1855 5.14513 16.2104 5.20546 16.2107 5.26841C16.211 5.33136 16.1865 5.39189 16.1425 5.43696L13.737 7.824C13.6921 7.86866 13.6314 7.89369 13.5681 7.8936Z" fill="#234BAD"/>
</svg>
