<svg width="20" height="20" viewBox="0 0 20 20" fill="none" xmlns="http://www.w3.org/2000/svg">
<path fill-rule="evenodd" clip-rule="evenodd" d="M14.6023 6.16336V7.44114C16.0376 7.88915 17.0834 9.18847 17.0834 10.7404V14.8544C17.0834 16.7757 15.4906 18.3334 13.5269 18.3334H6.47408C4.50955 18.3334 2.91675 16.7757 2.91675 14.8544V10.7404C2.91675 9.18847 3.96337 7.88915 5.39782 7.44114V6.16336C5.40629 3.67901 7.46397 1.66669 9.98738 1.66669C12.5447 1.66669 14.6023 3.67901 14.6023 6.16336ZM10.0043 3.11589C11.7233 3.11589 13.1205 4.48228 13.1205 6.16336V7.26144H6.87969V6.1468C6.88816 4.474 8.28535 3.11589 10.0043 3.11589ZM10.741 13.7125C10.741 14.1182 10.4108 14.4412 9.99585 14.4412C9.58939 14.4412 9.25915 14.1182 9.25915 13.7125V11.874C9.25915 11.4766 9.58939 11.1536 9.99585 11.1536C10.4108 11.1536 10.741 11.4766 10.741 11.874V13.7125Z" fill="#767676"/>
</svg>
