<svg width="14" height="16" viewBox="0 0 14 16" fill="none" xmlns="http://www.w3.org/2000/svg">
<path d="M4.75 2.75H3.25C2.42157 2.75 1.75 3.42157 1.75 4.25V13.25C1.75 14.0784 2.42157 14.75 3.25 14.75H10.75C11.5784 14.75 12.25 14.0784 12.25 13.25V4.25C12.25 3.42157 11.5784 2.75 10.75 2.75H9.25M4.75 2.75C4.75 3.57843 5.42157 4.25 6.25 4.25H7.75C8.57843 4.25 9.25 3.57843 9.25 2.75M4.75 2.75C4.75 1.92157 5.42157 1.25 6.25 1.25H7.75C8.57843 1.25 9.25 1.92157 9.25 2.75M7 8H9.25M7 11H9.25M4.75 8H4.7575M4.75 11H4.7575" stroke="#193664" stroke-width="2" stroke-linecap="round"/>
</svg>
