<svg width="14" height="14" viewBox="0 0 14 14" fill="none" xmlns="http://www.w3.org/2000/svg">
<path fill-rule="evenodd" clip-rule="evenodd" d="M0.333252 7.00969C0.333252 3.49775 3.13992 0.333008 7.01325 0.333008C10.7999 0.333008 13.6666 3.43766 13.6666 6.98966C13.6666 11.1092 10.3066 13.6663 6.99992 13.6663C5.90659 13.6663 4.69325 13.3726 3.71992 12.7984C3.37992 12.5914 3.09325 12.4378 2.72659 12.558L1.37992 12.9586C1.03992 13.0654 0.733252 12.7984 0.833252 12.4378L1.27992 10.9423C1.35325 10.7353 1.33992 10.5149 1.23325 10.3414C0.659919 9.28644 0.333252 8.13137 0.333252 7.00969ZM6.13325 7.00969C6.13325 7.48373 6.51325 7.8643 6.98659 7.87098C7.45992 7.87098 7.83992 7.48373 7.83992 7.01637C7.83992 6.54232 7.45992 6.16175 6.98659 6.16175C6.51992 6.15507 6.13325 6.54232 6.13325 7.00969ZM9.20658 7.01637C9.20658 7.48373 9.58659 7.87098 10.0599 7.87098C10.5333 7.87098 10.9133 7.48373 10.9133 7.01637C10.9133 6.54232 10.5333 6.16175 10.0599 6.16175C9.58659 6.16175 9.20658 6.54232 9.20658 7.01637ZM3.91325 7.87098C3.44659 7.87098 3.05992 7.48373 3.05992 7.01637C3.05992 6.54232 3.43992 6.16175 3.91325 6.16175C4.38659 6.16175 4.76659 6.54232 4.76659 7.01637C4.76659 7.48373 4.38659 7.86431 3.91325 7.87098Z" fill="#193664"/>
</svg>
