<svg width="20" height="20" viewBox="0 0 20 20" fill="none" xmlns="http://www.w3.org/2000/svg">
<path fill-rule="evenodd" clip-rule="evenodd" d="M8.16947 12.7105C8.68987 13.0633 9.3241 13.2766 9.99898 13.2766C11.7878 13.2766 13.2433 11.808 13.2433 10.0031C13.2433 9.32215 13.0319 8.68221 12.6823 8.15714L11.796 9.05141C11.9423 9.33035 12.0236 9.65852 12.0236 10.0031C12.0236 11.1271 11.113 12.046 9.99898 12.046C9.65748 12.046 9.33223 11.9639 9.05577 11.8162L8.16947 12.7105ZM15.3574 5.45795C16.5364 6.54091 17.5366 8.00126 18.2846 9.75697C18.3497 9.91285 18.3497 10.0933 18.2846 10.241C16.5446 14.3267 13.4466 16.7716 9.99898 16.7716H9.99085C8.42154 16.7716 6.91728 16.2547 5.5919 15.3112L4.01446 16.9029C3.89249 17.0259 3.738 17.0834 3.5835 17.0834C3.42901 17.0834 3.26639 17.0259 3.15255 16.9029C2.94927 16.6978 2.91675 16.3696 3.07937 16.1317L3.10377 16.0988L15.1297 3.96478C15.146 3.94837 15.1623 3.93196 15.1704 3.91555L15.1704 3.91555C15.1867 3.89914 15.2029 3.88273 15.2111 3.86633L15.9754 3.09513C16.2193 2.85721 16.6015 2.85721 16.8373 3.09513C17.0812 3.33305 17.0812 3.72686 16.8373 3.96478L15.3574 5.45795ZM6.74872 10.0063C6.74872 10.2196 6.77311 10.4329 6.80564 10.6298L3.79711 13.6654C2.98399 12.7137 2.27658 11.5651 1.71553 10.2442C1.65049 10.0965 1.65049 9.91605 1.71553 9.76017C3.4556 5.67446 6.55357 3.2378 9.99305 3.2378H10.0012C11.1639 3.2378 12.2942 3.51674 13.335 4.04182L10.6191 6.78203C10.424 6.74921 10.2126 6.7246 10.0012 6.7246C8.20419 6.7246 6.74872 8.19316 6.74872 10.0063Z" fill="#767676"/>
</svg>
