<svg width="24" height="22" viewBox="0 0 24 22" fill="none" xmlns="http://www.w3.org/2000/svg">
<path fill-rule="evenodd" clip-rule="evenodd" d="M14.581 6.05615C14.581 9.14053 12.057 11.6123 8.90747 11.6123C5.75906 11.6123 3.23394 9.14053 3.23394 6.05615C3.23394 2.97176 5.75906 0.5 8.90747 0.5C12.057 0.5 14.581 2.97176 14.581 6.05615ZM0.333252 17.9036C0.333252 15.0484 4.28303 14.334 8.90747 14.334C13.557 14.334 17.4817 15.073 17.4817 17.9304C17.4817 20.7856 13.5319 21.5 8.90747 21.5C4.25792 21.5 0.333252 20.761 0.333252 17.9036ZM16.8689 6.15687C16.8689 7.72757 16.3872 9.19319 15.5424 10.4106C15.4545 10.5358 15.5321 10.7046 15.6851 10.7315C15.8974 10.7661 16.1155 10.7874 16.3381 10.7918C18.5527 10.8489 20.5402 9.45255 21.0892 7.34971C21.9032 4.22955 19.515 1.428 16.4728 1.428C16.1429 1.428 15.8267 1.46154 15.5184 1.52302C15.4762 1.53197 15.4305 1.55209 15.4077 1.58786C15.378 1.6337 15.3997 1.69295 15.4294 1.73208C16.3438 2.98752 16.8689 4.51574 16.8689 6.15687ZM20.5367 12.986C22.0253 13.2711 23.0036 13.8513 23.4089 14.6976C23.7525 15.3907 23.7525 16.1956 23.4089 16.8887C22.789 18.199 20.789 18.6204 20.0116 18.7289C19.8507 18.7512 19.7217 18.6171 19.7388 18.4583C20.136 14.8273 16.9774 13.1056 16.16 12.7099C16.1258 12.6909 16.1178 12.664 16.1212 12.6462C16.1235 12.635 16.1383 12.6171 16.1646 12.6137C17.9328 12.5802 19.8347 12.8183 20.5367 12.986Z" fill="#193664"/>
</svg>
