<svg width="14" height="14" viewBox="0 0 14 14" fill="none" xmlns="http://www.w3.org/2000/svg">
<path d="M6.14396 1.53399C6.41338 0.704814 7.58645 0.704815 7.85586 1.53399L8.81848 4.49661C8.93896 4.86743 9.28452 5.1185 9.67443 5.1185H12.7895C13.6614 5.1185 14.0239 6.23415 13.3185 6.74661L10.7984 8.57761C10.4829 8.80679 10.3509 9.21302 10.4714 9.58384L11.434 12.5465C11.7034 13.3756 10.7544 14.0651 10.0491 13.5527L7.52892 11.7217C7.21348 11.4925 6.78634 11.4925 6.47091 11.7217L3.95075 13.5527C3.24541 14.0651 2.29638 13.3756 2.5658 12.5465L3.52841 9.58384C3.6489 9.21302 3.5169 8.80679 3.20146 8.57761L0.681312 6.74661C-0.0240301 6.23415 0.338468 5.1185 1.21032 5.1185H4.3254C4.7153 5.1185 5.06086 4.86743 5.18135 4.49661L6.14396 1.53399Z" fill="#193664"/>
</svg>
