<svg width="16" height="16" viewBox="0 0 16 16" fill="none" xmlns="http://www.w3.org/2000/svg">
<path fill-rule="evenodd" clip-rule="evenodd" d="M9.34035 1.85365C8.99923 0.448523 7.00087 0.448522 6.65975 1.85365C6.43939 2.76135 5.39945 3.1921 4.6018 2.70608C3.36701 1.95372 1.95396 3.36677 2.70633 4.60155C3.19235 5.39921 2.76159 6.43915 1.8539 6.65951C0.448766 7.00063 0.448767 8.99898 1.8539 9.3401C2.76159 9.56046 3.19235 10.6004 2.70633 11.3981C1.95396 12.6328 3.36701 14.0459 4.6018 13.2935C5.39945 12.8075 6.43939 13.2383 6.65975 14.146C7.00087 15.5511 8.99923 15.5511 9.34035 14.146C9.56071 13.2383 10.6006 12.8075 11.3983 13.2935C12.6331 14.0459 14.0461 12.6328 13.2938 11.3981C12.8077 10.6004 13.2385 9.56046 14.1462 9.3401C15.5513 8.99898 15.5513 7.00063 14.1462 6.65951C13.2385 6.43915 12.8077 5.39921 13.2938 4.60155C14.0461 3.36677 12.6331 1.95372 11.3983 2.70608C10.6006 3.19211 9.56071 2.76135 9.34035 1.85365ZM8.00005 10.6998C9.49122 10.6998 10.7 9.49097 10.7 7.9998C10.7 6.50864 9.49122 5.2998 8.00005 5.2998C6.50888 5.2998 5.30005 6.50864 5.30005 7.9998C5.30005 9.49097 6.50888 10.6998 8.00005 10.6998Z" fill="#193664"/>
</svg>
