<svg width="18" height="18" viewBox="0 0 18 18" fill="none" xmlns="http://www.w3.org/2000/svg">
<path fill-rule="evenodd" clip-rule="evenodd" d="M4.40625 6.4684H2.625C2.211 6.4684 1.875 6.8044 1.875 7.2184V10.7809C1.875 11.1949 2.211 11.5309 2.625 11.5309H4.40625L7.3905 14.0592C7.878 14.4724 8.625 14.1259 8.625 13.4869V4.5124C8.625 3.8734 7.87725 3.5269 7.3905 3.94015L4.40625 6.4684Z" stroke="white" stroke-width="1.5" stroke-linecap="round" stroke-linejoin="round"/>
<path d="M11.6527 11.9836C12.5242 11.4421 13.125 10.3156 13.125 9.00385C13.125 7.6921 12.5242 6.56485 11.6527 6.0166" stroke="white" stroke-width="1.5" stroke-linecap="round" stroke-linejoin="round"/>
<path d="M13.8787 14.2989C15.2347 13.1326 16.125 11.1976 16.125 9.0024C16.125 6.80415 15.2332 4.86765 13.875 3.70215" stroke="white" stroke-width="1.5" stroke-linecap="round" stroke-linejoin="round"/>
</svg>
