<svg width="12" height="12" viewBox="0 0 12 12" fill="none" xmlns="http://www.w3.org/2000/svg">
<path d="M5.23924 1.14165C5.47872 0.404605 6.52145 0.404605 6.76093 1.14165L7.61659 3.77509C7.72368 4.10471 8.03085 4.32788 8.37743 4.32788H11.1464C11.9214 4.32788 12.2436 5.31957 11.6166 5.77509L9.37648 7.40265C9.09609 7.60636 8.97877 7.96745 9.08587 8.29707L9.94152 10.9305C10.181 11.6676 9.33742 12.2805 8.71045 11.8249L6.47031 10.1974C6.18992 9.99367 5.81025 9.99367 5.52986 10.1974L3.28972 11.8249C2.66275 12.2805 1.81917 11.6676 2.05865 10.9305L2.9143 8.29707C3.0214 7.96745 2.90408 7.60636 2.62369 7.40265L0.383551 5.77509C-0.24342 5.31957 0.078801 4.32788 0.85378 4.32788H3.62274C3.96932 4.32788 4.27648 4.10471 4.38358 3.77509L5.23924 1.14165Z" fill="#193664"/>
</svg>
