<svg width="18" height="18" viewBox="0 0 18 18" fill="none" xmlns="http://www.w3.org/2000/svg">
<path d="M17.1738 0.0386715C17.0648 0.0984364 0.108984 17.0578 0.0492188 17.1633C0.0210938 17.216 0 17.3426 0 17.4445C0 17.7855 0.214453 18 0.555469 18C0.657422 18 0.783984 17.9789 0.836719 17.9508C0.889453 17.9227 1.66641 17.1633 2.56641 16.2633L4.20117 14.625H8.15977C11.6684 14.625 12.1395 14.618 12.3082 14.5687C12.8285 14.4176 13.2715 13.9781 13.4332 13.4613C13.4895 13.2785 13.5 13.1344 13.5 12.4418C13.5 11.9988 13.507 11.6367 13.5176 11.6367C13.5281 11.6367 14.3754 12.0551 15.3984 12.5684C17.1281 13.4332 17.2758 13.5 17.4445 13.5C17.666 13.5 17.8277 13.4156 17.9297 13.2469C18 13.1344 18 13.0605 18 9C18 4.93945 18 4.86562 17.9297 4.75312C17.8277 4.58437 17.666 4.5 17.4445 4.5C17.2758 4.5 17.1281 4.5668 15.3984 5.43164C14.3754 5.94492 13.5281 6.36328 13.5176 6.36328C13.507 6.36328 13.5 6.13125 13.5 5.84297V5.32617L15.7008 3.12891C16.9102 1.91953 17.9227 0.889452 17.9508 0.836718C17.9789 0.783983 18 0.657421 18 0.555468C18 0.210936 17.7855 0 17.4375 0C17.332 0 17.2125 0.0175781 17.1738 0.0386715ZM16.875 9C16.875 10.6418 16.868 11.9883 16.8574 11.9883C16.8469 11.9883 16.0875 11.6121 15.1699 11.1551L13.5 10.3184V9V7.68164L15.1629 6.84844C16.0734 6.39141 16.8328 6.01523 16.8504 6.01523C16.8645 6.01172 16.875 7.35469 16.875 9ZM12.3574 12.927C12.3328 13.1449 12.2273 13.3102 12.0586 13.4086C11.9355 13.4824 11.8934 13.4824 8.63086 13.493L5.32617 13.5L8.8418 9.98438L12.3574 6.46875L12.368 9.60469C12.375 11.3309 12.368 12.825 12.3574 12.927Z" fill="white"/>
<path d="M1.15313 3.4417C0.643359 3.60694 0.207422 4.05342 0.05625 4.5667C0.00703125 4.73897 0 5.27686 0 9.50616C0 14.1819 0 14.2558 0.0703125 14.3718C0.274219 14.7058 0.829688 14.7198 1.04414 14.3894C1.10391 14.298 1.10742 14.0483 1.125 9.61514C1.14258 5.02022 1.14258 4.93584 1.21289 4.81983C1.3043 4.66514 1.43086 4.57374 1.60313 4.53506C1.68047 4.51397 3.81445 4.49991 6.60938 4.49991C11.3695 4.49991 11.482 4.49639 11.5805 4.42959C11.9285 4.20108 11.9285 3.67373 11.5805 3.44522C11.482 3.37842 11.3695 3.37491 6.41602 3.37842C1.60664 3.37842 1.34297 3.38194 1.15313 3.4417Z" fill="white"/>
</svg>
