<svg width="24" height="18" viewBox="0 0 24 18" fill="none" xmlns="http://www.w3.org/2000/svg">
<path fill-rule="evenodd" clip-rule="evenodd" d="M5.1318 0.25H11.8892C14.7149 0.25 16.6877 2.19721 16.6877 4.98773V13.0123C16.6877 15.8028 14.7149 17.75 11.8892 17.75H5.1318C2.3061 17.75 0.333252 15.8028 0.333252 13.0123V4.98773C0.333252 2.19721 2.3061 0.25 5.1318 0.25ZM21.2842 3.02548C21.7964 2.76491 22.3972 2.79215 22.8861 3.1001C23.3749 3.40687 23.6666 3.93986 23.6666 4.52261V13.4781C23.6666 14.062 23.3749 14.5938 22.8861 14.9006C22.6189 15.0676 22.3202 15.1529 22.0192 15.1529C21.7684 15.1529 21.5176 15.0937 21.2831 14.974L19.5552 14.1023C18.9159 13.7778 18.5192 13.1263 18.5192 12.4026V5.59689C18.5192 4.87201 18.9159 4.22058 19.5552 3.89841L21.2842 3.02548Z" fill="#193664"/>
</svg>
