<svg width="35" height="28" viewBox="0 0 35 28" fill="none" xmlns="http://www.w3.org/2000/svg">
<path d="M26.6667 8.50032V4.83366C26.6667 2.80861 25.025 1.16699 23 1.16699H4.66667C2.64162 1.16699 1 2.80861 1 4.83366V15.8337C1 17.8587 2.64162 19.5003 4.66667 19.5003H8.33333M12 26.8337H30.3333C32.3584 26.8337 34 25.192 34 23.167V12.167C34 10.1419 32.3584 8.50032 30.3333 8.50032H12C9.97496 8.50032 8.33333 10.1419 8.33333 12.167V23.167C8.33333 25.192 9.97496 26.8337 12 26.8337ZM24.8333 17.667C24.8333 19.692 23.1917 21.3337 21.1667 21.3337C19.1416 21.3337 17.5 19.692 17.5 17.667C17.5 15.6419 19.1416 14.0003 21.1667 14.0003C23.1917 14.0003 24.8333 15.6419 24.8333 17.667Z" stroke="#193664" stroke-width="2" stroke-linecap="round" stroke-linejoin="round"/>
</svg>
